<?xml version="1.0" encoding="utf-8" standalone="no"?>
<!DOCTYPE svg PUBLIC "-//W3C//DTD SVG 1.1//EN"
  "http://www.w3.org/Graphics/SVG/1.1/DTD/svg11.dtd">
<svg xmlns:xlink="http://www.w3.org/1999/xlink" width="702.31479pt" height="236.16pt" viewBox="0 0 702.31479 236.16" xmlns="http://www.w3.org/2000/svg" version="1.1">
 <metadata>
  <rdf:RDF xmlns:dc="http://purl.org/dc/elements/1.1/" xmlns:cc="http://creativecommons.org/ns#" xmlns:rdf="http://www.w3.org/1999/02/22-rdf-syntax-ns#">
   <cc:Work>
    <dc:type rdf:resource="http://purl.org/dc/dcmitype/StillImage"/>
    <dc:date>2025-10-19T06:56:39.582975</dc:date>
    <dc:format>image/svg+xml</dc:format>
    <dc:creator>
     <cc:Agent>
      <dc:title>Matplotlib v3.6.3, https://matplotlib.org/</dc:title>
     </cc:Agent>
    </dc:creator>
   </cc:Work>
  </rdf:RDF>
 </metadata>
 <defs>
  <style type="text/css">*{stroke-linejoin: round; stroke-linecap: butt}</style>
 </defs>
 <g id="figure_1">
  <g id="patch_1">
   <path d="M 0 236.16 
L 702.31479 236.16 
L 702.31479 0 
L 0 0 
z
" style="fill: #ffffff"/>
  </g>
  <g id="axes_1">
   <g id="patch_2">
    <path d="M 18.213158 129.168 
L 154.776316 129.168 
Q 156.978947 129.168 156.978947 126.396 
L 156.978947 59.868 
Q 156.978947 57.096 154.776316 57.096 
L 18.213158 57.096 
Q 16.010526 57.096 16.010526 59.868 
L 16.010526 126.396 
Q 16.010526 129.168 18.213158 129.168 
z
" clip-path="url(#pcc4f669eb8)" style="fill: #ffffff; stroke: #000000; stroke-width: 1.2; stroke-linejoin: miter"/>
   </g>
   <g id="patch_3">
    <path d="M 159.181579 129.168 
L 295.744737 129.168 
Q 297.947368 129.168 297.947368 126.396 
L 297.947368 59.868 
Q 297.947368 57.096 295.744737 57.096 
L 159.181579 57.096 
Q 156.978947 57.096 156.978947 59.868 
L 156.978947 126.396 
Q 156.978947 129.168 159.181579 129.168 
z
" clip-path="url(#pcc4f669eb8)" style="fill: #ffffff; stroke: #000000; stroke-width: 1.2; stroke-linejoin: miter"/>
   </g>
   <g id="patch_4">
    <path d="M 300.15 101.448 
L 436.713158 101.448 
Q 438.915789 101.448 438.915789 98.676 
L 438.915789 32.148 
Q 438.915789 29.376 436.713158 29.376 
L 300.15 29.376 
Q 297.947368 29.376 297.947368 32.148 
L 297.947368 98.676 
Q 297.947368 101.448 300.15 101.448 
z
" clip-path="url(#pcc4f669eb8)" style="fill: #ffffff; stroke: #000000; stroke-width: 1.2; stroke-linejoin: miter"/>
   </g>
   <g id="patch_5">
    <path d="M 300.15 156.888 
L 436.713158 156.888 
Q 438.915789 156.888 438.915789 154.116 
L 438.915789 87.588 
Q 438.915789 84.816 436.713158 84.816 
L 300.15 84.816 
Q 297.947368 84.816 297.947368 87.588 
L 297.947368 154.116 
Q 297.947368 156.888 300.15 156.888 
z
" clip-path="url(#pcc4f669eb8)" style="fill: #ffffff; stroke: #000000; stroke-width: 1.2; stroke-linejoin: miter"/>
   </g>
   <g id="patch_6">
    <path d="M 441.118421 129.168 
L 577.681579 129.168 
Q 579.884211 129.168 579.884211 126.396 
L 579.884211 59.868 
Q 579.884211 57.096 577.681579 57.096 
L 441.118421 57.096 
Q 438.915789 57.096 438.915789 59.868 
L 438.915789 126.396 
Q 438.915789 129.168 441.118421 129.168 
z
" clip-path="url(#pcc4f669eb8)" style="fill: #ffffff; stroke: #000000; stroke-width: 1.2; stroke-linejoin: miter"/>
   </g>
   <g id="patch_7">
    <path d="M 564.465789 129.168 
L 701.028947 129.168 
Q 703.231579 129.168 703.231579 126.396 
L 703.231579 59.868 
Q 703.231579 57.096 701.028947 57.096 
L 564.465789 57.096 
Q 562.263158 57.096 562.263158 59.868 
L 562.263158 126.396 
Q 562.263158 129.168 564.465789 129.168 
z
" clip-path="url(#pcc4f669eb8)" style="fill: #ffffff; stroke: #000000; stroke-width: 1.2; stroke-linejoin: miter"/>
   </g>
   <g id="patch_8">
    <path d="M 150.168858 93.132 
Q 156.978089 93.132 162.445679 93.132 
" clip-path="url(#pcc4f669eb8)" style="fill: none; stroke: #000000; stroke-width: 1.2; stroke-linecap: round"/>
    <path d="M 157.645679 90.732 
L 162.445679 93.132 
L 157.645679 95.532 
L 157.645679 90.732 
z
" clip-path="url(#pcc4f669eb8)" style="fill: #e69f00; stroke: #000000; stroke-width: 1.2; stroke-linecap: round"/>
   </g>
   <g id="patch_9">
    <path d="M 291.042635 70.356393 
Q 297.946836 68.184167 303.571245 66.414595 
" clip-path="url(#pcc4f669eb8)" style="fill: none; stroke: #000000; stroke-width: 1.2; stroke-linecap: round"/>
    <path d="M 298.27223 65.565808 
L 303.571245 66.414595 
L 299.712806 70.144535 
L 298.27223 65.565808 
z
" clip-path="url(#pcc4f669eb8)" style="fill: #e69f00; stroke: #000000; stroke-width: 1.2; stroke-linecap: round"/>
   </g>
   <g id="patch_10">
    <path d="M 291.137279 115.308 
Q 297.94651 115.308 303.4141 115.308 
" clip-path="url(#pcc4f669eb8)" style="fill: none; stroke: #000000; stroke-width: 1.2; stroke-linecap: round"/>
    <path d="M 298.6141 112.908 
L 303.4141 115.308 
L 298.6141 117.708 
L 298.6141 112.908 
z
" clip-path="url(#pcc4f669eb8)" style="fill: #e69f00; stroke: #000000; stroke-width: 1.2; stroke-linecap: round"/>
   </g>
   <g id="patch_11">
    <path d="M 431.178616 67.100511 
Q 438.91616 79.272583 445.933962 90.312415 
" clip-path="url(#pcc4f669eb8)" style="fill: none; stroke: #000000; stroke-width: 1.2; stroke-linecap: round"/>
    <path d="M 445.384345 84.974071 
L 445.933962 90.312415 
L 441.333516 87.549102 
L 445.384345 84.974071 
z
" clip-path="url(#pcc4f669eb8)" style="fill: #e69f00; stroke: #000000; stroke-width: 1.2; stroke-linecap: round"/>
   </g>
   <g id="patch_12">
    <path d="M 431.350696 113.740629 
Q 438.915825 104.219956 445.6463 95.749689 
" clip-path="url(#pcc4f669eb8)" style="fill: none; stroke: #000000; stroke-width: 1.2; stroke-linecap: round"/>
    <path d="M 440.781129 98.014665 
L 445.6463 95.749689 
L 444.539178 101.000811 
L 440.781129 98.014665 
z
" clip-path="url(#pcc4f669eb8)" style="fill: #e69f00; stroke: #000000; stroke-width: 1.2; stroke-linecap: round"/>
   </g>
   <g id="patch_13">
    <path d="M 571.073684 93.132 
Q 571.073684 93.132 572.415325 93.132 
" clip-path="url(#pcc4f669eb8)" style="fill: none; stroke: #000000; stroke-width: 1.2; stroke-linecap: round"/>
    <path d="M 577.215325 95.532 
L 572.415325 93.132 
L 577.215325 90.732 
L 577.215325 95.532 
z
" clip-path="url(#pcc4f669eb8)" style="fill: #e69f00; stroke: #000000; stroke-width: 1.2; stroke-linecap: round"/>
   </g>
   <g id="text_1">
    <!-- Neuron Groups -->
    <g style="fill: #333333" transform="translate(45.167393 90.008516) scale(0.11 -0.11)">
     <defs>
      <path id="DejaVuSans-4e" d="M 628 4666 
L 1478 4666 
L 3547 763 
L 3547 4666 
L 4159 4666 
L 4159 0 
L 3309 0 
L 1241 3903 
L 1241 0 
L 628 0 
L 628 4666 
z
" transform="scale(0.015625)"/>
      <path id="DejaVuSans-65" d="M 3597 1894 
L 3597 1613 
L 953 1613 
Q 991 1019 1311 708 
Q 1631 397 2203 397 
Q 2534 397 2845 478 
Q 3156 559 3463 722 
L 3463 178 
Q 3153 47 2828 -22 
Q 2503 -91 2169 -91 
Q 1331 -91 842 396 
Q 353 884 353 1716 
Q 353 2575 817 3079 
Q 1281 3584 2069 3584 
Q 2775 3584 3186 3129 
Q 3597 2675 3597 1894 
z
M 3022 2063 
Q 3016 2534 2758 2815 
Q 2500 3097 2075 3097 
Q 1594 3097 1305 2825 
Q 1016 2553 972 2059 
L 3022 2063 
z
" transform="scale(0.015625)"/>
      <path id="DejaVuSans-75" d="M 544 1381 
L 544 3500 
L 1119 3500 
L 1119 1403 
Q 1119 906 1312 657 
Q 1506 409 1894 409 
Q 2359 409 2629 706 
Q 2900 1003 2900 1516 
L 2900 3500 
L 3475 3500 
L 3475 0 
L 2900 0 
L 2900 538 
Q 2691 219 2414 64 
Q 2138 -91 1772 -91 
Q 1169 -91 856 284 
Q 544 659 544 1381 
z
M 1991 3584 
L 1991 3584 
z
" transform="scale(0.015625)"/>
      <path id="DejaVuSans-72" d="M 2631 2963 
Q 2534 3019 2420 3045 
Q 2306 3072 2169 3072 
Q 1681 3072 1420 2755 
Q 1159 2438 1159 1844 
L 1159 0 
L 581 0 
L 581 3500 
L 1159 3500 
L 1159 2956 
Q 1341 3275 1631 3429 
Q 1922 3584 2338 3584 
Q 2397 3584 2469 3576 
Q 2541 3569 2628 3553 
L 2631 2963 
z
" transform="scale(0.015625)"/>
      <path id="DejaVuSans-6f" d="M 1959 3097 
Q 1497 3097 1228 2736 
Q 959 2375 959 1747 
Q 959 1119 1226 758 
Q 1494 397 1959 397 
Q 2419 397 2687 759 
Q 2956 1122 2956 1747 
Q 2956 2369 2687 2733 
Q 2419 3097 1959 3097 
z
M 1959 3584 
Q 2709 3584 3137 3096 
Q 3566 2609 3566 1747 
Q 3566 888 3137 398 
Q 2709 -91 1959 -91 
Q 1206 -91 779 398 
Q 353 888 353 1747 
Q 353 2609 779 3096 
Q 1206 3584 1959 3584 
z
" transform="scale(0.015625)"/>
      <path id="DejaVuSans-6e" d="M 3513 2113 
L 3513 0 
L 2938 0 
L 2938 2094 
Q 2938 2591 2744 2837 
Q 2550 3084 2163 3084 
Q 1697 3084 1428 2787 
Q 1159 2491 1159 1978 
L 1159 0 
L 581 0 
L 581 3500 
L 1159 3500 
L 1159 2956 
Q 1366 3272 1645 3428 
Q 1925 3584 2291 3584 
Q 2894 3584 3203 3211 
Q 3513 2838 3513 2113 
z
" transform="scale(0.015625)"/>
      <path id="DejaVuSans-20" transform="scale(0.015625)"/>
      <path id="DejaVuSans-47" d="M 3809 666 
L 3809 1919 
L 2778 1919 
L 2778 2438 
L 4434 2438 
L 4434 434 
Q 4069 175 3628 42 
Q 3188 -91 2688 -91 
Q 1594 -91 976 548 
Q 359 1188 359 2328 
Q 359 3472 976 4111 
Q 1594 4750 2688 4750 
Q 3144 4750 3555 4637 
Q 3966 4525 4313 4306 
L 4313 3634 
Q 3963 3931 3569 4081 
Q 3175 4231 2741 4231 
Q 1884 4231 1454 3753 
Q 1025 3275 1025 2328 
Q 1025 1384 1454 906 
Q 1884 428 2741 428 
Q 3075 428 3337 486 
Q 3600 544 3809 666 
z
" transform="scale(0.015625)"/>
      <path id="DejaVuSans-70" d="M 1159 525 
L 1159 -1331 
L 581 -1331 
L 581 3500 
L 1159 3500 
L 1159 2969 
Q 1341 3281 1617 3432 
Q 1894 3584 2278 3584 
Q 2916 3584 3314 3078 
Q 3713 2572 3713 1747 
Q 3713 922 3314 415 
Q 2916 -91 2278 -91 
Q 1894 -91 1617 61 
Q 1341 213 1159 525 
z
M 3116 1747 
Q 3116 2381 2855 2742 
Q 2594 3103 2138 3103 
Q 1681 3103 1420 2742 
Q 1159 2381 1159 1747 
Q 1159 1113 1420 752 
Q 1681 391 2138 391 
Q 2594 391 2855 752 
Q 3116 1113 3116 1747 
z
" transform="scale(0.015625)"/>
      <path id="DejaVuSans-73" d="M 2834 3397 
L 2834 2853 
Q 2591 2978 2328 3040 
Q 2066 3103 1784 3103 
Q 1356 3103 1142 2972 
Q 928 2841 928 2578 
Q 928 2378 1081 2264 
Q 1234 2150 1697 2047 
L 1894 2003 
Q 2506 1872 2764 1633 
Q 3022 1394 3022 966 
Q 3022 478 2636 193 
Q 2250 -91 1575 -91 
Q 1294 -91 989 -36 
Q 684 19 347 128 
L 347 722 
Q 666 556 975 473 
Q 1284 391 1588 391 
Q 1994 391 2212 530 
Q 2431 669 2431 922 
Q 2431 1156 2273 1281 
Q 2116 1406 1581 1522 
L 1381 1569 
Q 847 1681 609 1914 
Q 372 2147 372 2553 
Q 372 3047 722 3315 
Q 1072 3584 1716 3584 
Q 2034 3584 2315 3537 
Q 2597 3491 2834 3397 
z
" transform="scale(0.015625)"/>
     </defs>
     <use xlink:href="#DejaVuSans-4e"/>
     <use xlink:href="#DejaVuSans-65" x="74.804688"/>
     <use xlink:href="#DejaVuSans-75" x="136.328125"/>
     <use xlink:href="#DejaVuSans-72" x="199.707031"/>
     <use xlink:href="#DejaVuSans-6f" x="238.570312"/>
     <use xlink:href="#DejaVuSans-6e" x="299.751953"/>
     <use xlink:href="#DejaVuSans-20" x="363.130859"/>
     <use xlink:href="#DejaVuSans-47" x="394.917969"/>
     <use xlink:href="#DejaVuSans-72" x="472.408203"/>
     <use xlink:href="#DejaVuSans-6f" x="511.271484"/>
     <use xlink:href="#DejaVuSans-75" x="572.453125"/>
     <use xlink:href="#DejaVuSans-70" x="635.832031"/>
     <use xlink:href="#DejaVuSans-73" x="699.308594"/>
    </g>
    <!-- n(x) -->
    <g style="fill: #333333" transform="translate(75.462081 102.326109) scale(0.11 -0.11)">
     <defs>
      <path id="DejaVuSans-28" d="M 1984 4856 
Q 1566 4138 1362 3434 
Q 1159 2731 1159 2009 
Q 1159 1288 1364 580 
Q 1569 -128 1984 -844 
L 1484 -844 
Q 1016 -109 783 600 
Q 550 1309 550 2009 
Q 550 2706 781 3412 
Q 1013 4119 1484 4856 
L 1984 4856 
z
" transform="scale(0.015625)"/>
      <path id="DejaVuSans-78" d="M 3513 3500 
L 2247 1797 
L 3578 0 
L 2900 0 
L 1881 1375 
L 863 0 
L 184 0 
L 1544 1831 
L 300 3500 
L 978 3500 
L 1906 2253 
L 2834 3500 
L 3513 3500 
z
" transform="scale(0.015625)"/>
      <path id="DejaVuSans-29" d="M 513 4856 
L 1013 4856 
Q 1481 4119 1714 3412 
Q 1947 2706 1947 2009 
Q 1947 1309 1714 600 
Q 1481 -109 1013 -844 
L 513 -844 
Q 928 -128 1133 580 
Q 1338 1288 1338 2009 
Q 1338 2731 1133 3434 
Q 928 4138 513 4856 
z
" transform="scale(0.015625)"/>
     </defs>
     <use xlink:href="#DejaVuSans-6e"/>
     <use xlink:href="#DejaVuSans-28" x="63.378906"/>
     <use xlink:href="#DejaVuSans-78" x="102.392578"/>
     <use xlink:href="#DejaVuSans-29" x="161.572266"/>
    </g>
   </g>
   <g id="text_2">
    <!-- Parity Nodes (PN) -->
    <g style="fill: #333333" transform="translate(179.383705 90.008516) scale(0.11 -0.11)">
     <defs>
      <path id="DejaVuSans-50" d="M 1259 4147 
L 1259 2394 
L 2053 2394 
Q 2494 2394 2734 2622 
Q 2975 2850 2975 3272 
Q 2975 3691 2734 3919 
Q 2494 4147 2053 4147 
L 1259 4147 
z
M 628 4666 
L 2053 4666 
Q 2838 4666 3239 4311 
Q 3641 3956 3641 3272 
Q 3641 2581 3239 2228 
Q 2838 1875 2053 1875 
L 1259 1875 
L 1259 0 
L 628 0 
L 628 4666 
z
" transform="scale(0.015625)"/>
      <path id="DejaVuSans-61" d="M 2194 1759 
Q 1497 1759 1228 1600 
Q 959 1441 959 1056 
Q 959 750 1161 570 
Q 1363 391 1709 391 
Q 2188 391 2477 730 
Q 2766 1069 2766 1631 
L 2766 1759 
L 2194 1759 
z
M 3341 1997 
L 3341 0 
L 2766 0 
L 2766 531 
Q 2569 213 2275 61 
Q 1981 -91 1556 -91 
Q 1019 -91 701 211 
Q 384 513 384 1019 
Q 384 1609 779 1909 
Q 1175 2209 1959 2209 
L 2766 2209 
L 2766 2266 
Q 2766 2663 2505 2880 
Q 2244 3097 1772 3097 
Q 1472 3097 1187 3025 
Q 903 2953 641 2809 
L 641 3341 
Q 956 3463 1253 3523 
Q 1550 3584 1831 3584 
Q 2591 3584 2966 3190 
Q 3341 2797 3341 1997 
z
" transform="scale(0.015625)"/>
      <path id="DejaVuSans-69" d="M 603 3500 
L 1178 3500 
L 1178 0 
L 603 0 
L 603 3500 
z
M 603 4863 
L 1178 4863 
L 1178 4134 
L 603 4134 
L 603 4863 
z
" transform="scale(0.015625)"/>
      <path id="DejaVuSans-74" d="M 1172 4494 
L 1172 3500 
L 2356 3500 
L 2356 3053 
L 1172 3053 
L 1172 1153 
Q 1172 725 1289 603 
Q 1406 481 1766 481 
L 2356 481 
L 2356 0 
L 1766 0 
Q 1100 0 847 248 
Q 594 497 594 1153 
L 594 3053 
L 172 3053 
L 172 3500 
L 594 3500 
L 594 4494 
L 1172 4494 
z
" transform="scale(0.015625)"/>
      <path id="DejaVuSans-79" d="M 2059 -325 
Q 1816 -950 1584 -1140 
Q 1353 -1331 966 -1331 
L 506 -1331 
L 506 -850 
L 844 -850 
Q 1081 -850 1212 -737 
Q 1344 -625 1503 -206 
L 1606 56 
L 191 3500 
L 800 3500 
L 1894 763 
L 2988 3500 
L 3597 3500 
L 2059 -325 
z
" transform="scale(0.015625)"/>
      <path id="DejaVuSans-64" d="M 2906 2969 
L 2906 4863 
L 3481 4863 
L 3481 0 
L 2906 0 
L 2906 525 
Q 2725 213 2448 61 
Q 2172 -91 1784 -91 
Q 1150 -91 751 415 
Q 353 922 353 1747 
Q 353 2572 751 3078 
Q 1150 3584 1784 3584 
Q 2172 3584 2448 3432 
Q 2725 3281 2906 2969 
z
M 947 1747 
Q 947 1113 1208 752 
Q 1469 391 1925 391 
Q 2381 391 2643 752 
Q 2906 1113 2906 1747 
Q 2906 2381 2643 2742 
Q 2381 3103 1925 3103 
Q 1469 3103 1208 2742 
Q 947 2381 947 1747 
z
" transform="scale(0.015625)"/>
     </defs>
     <use xlink:href="#DejaVuSans-50"/>
     <use xlink:href="#DejaVuSans-61" x="55.802734"/>
     <use xlink:href="#DejaVuSans-72" x="117.082031"/>
     <use xlink:href="#DejaVuSans-69" x="158.195312"/>
     <use xlink:href="#DejaVuSans-74" x="185.978516"/>
     <use xlink:href="#DejaVuSans-79" x="225.1875"/>
     <use xlink:href="#DejaVuSans-20" x="284.367188"/>
     <use xlink:href="#DejaVuSans-4e" x="316.154297"/>
     <use xlink:href="#DejaVuSans-6f" x="390.958984"/>
     <use xlink:href="#DejaVuSans-64" x="452.140625"/>
     <use xlink:href="#DejaVuSans-65" x="515.617188"/>
     <use xlink:href="#DejaVuSans-73" x="577.140625"/>
     <use xlink:href="#DejaVuSans-20" x="629.240234"/>
     <use xlink:href="#DejaVuSans-28" x="661.027344"/>
     <use xlink:href="#DejaVuSans-50" x="700.041016"/>
     <use xlink:href="#DejaVuSans-4e" x="760.34375"/>
     <use xlink:href="#DejaVuSans-29" x="835.148438"/>
    </g>
    <!-- parity over weights -->
    <g style="fill: #333333" transform="translate(174.230033 102.326109) scale(0.11 -0.11)">
     <defs>
      <path id="DejaVuSans-76" d="M 191 3500 
L 800 3500 
L 1894 563 
L 2988 3500 
L 3597 3500 
L 2284 0 
L 1503 0 
L 191 3500 
z
" transform="scale(0.015625)"/>
      <path id="DejaVuSans-77" d="M 269 3500 
L 844 3500 
L 1563 769 
L 2278 3500 
L 2956 3500 
L 3675 769 
L 4391 3500 
L 4966 3500 
L 4050 0 
L 3372 0 
L 2619 2869 
L 1863 0 
L 1184 0 
L 269 3500 
z
" transform="scale(0.015625)"/>
      <path id="DejaVuSans-67" d="M 2906 1791 
Q 2906 2416 2648 2759 
Q 2391 3103 1925 3103 
Q 1463 3103 1205 2759 
Q 947 2416 947 1791 
Q 947 1169 1205 825 
Q 1463 481 1925 481 
Q 2391 481 2648 825 
Q 2906 1169 2906 1791 
z
M 3481 434 
Q 3481 -459 3084 -895 
Q 2688 -1331 1869 -1331 
Q 1566 -1331 1297 -1286 
Q 1028 -1241 775 -1147 
L 775 -588 
Q 1028 -725 1275 -790 
Q 1522 -856 1778 -856 
Q 2344 -856 2625 -561 
Q 2906 -266 2906 331 
L 2906 616 
Q 2728 306 2450 153 
Q 2172 0 1784 0 
Q 1141 0 747 490 
Q 353 981 353 1791 
Q 353 2603 747 3093 
Q 1141 3584 1784 3584 
Q 2172 3584 2450 3431 
Q 2728 3278 2906 2969 
L 2906 3500 
L 3481 3500 
L 3481 434 
z
" transform="scale(0.015625)"/>
      <path id="DejaVuSans-68" d="M 3513 2113 
L 3513 0 
L 2938 0 
L 2938 2094 
Q 2938 2591 2744 2837 
Q 2550 3084 2163 3084 
Q 1697 3084 1428 2787 
Q 1159 2491 1159 1978 
L 1159 0 
L 581 0 
L 581 4863 
L 1159 4863 
L 1159 2956 
Q 1366 3272 1645 3428 
Q 1925 3584 2291 3584 
Q 2894 3584 3203 3211 
Q 3513 2838 3513 2113 
z
" transform="scale(0.015625)"/>
     </defs>
     <use xlink:href="#DejaVuSans-70"/>
     <use xlink:href="#DejaVuSans-61" x="63.476562"/>
     <use xlink:href="#DejaVuSans-72" x="124.755859"/>
     <use xlink:href="#DejaVuSans-69" x="165.869141"/>
     <use xlink:href="#DejaVuSans-74" x="193.652344"/>
     <use xlink:href="#DejaVuSans-79" x="232.861328"/>
     <use xlink:href="#DejaVuSans-20" x="292.041016"/>
     <use xlink:href="#DejaVuSans-6f" x="323.828125"/>
     <use xlink:href="#DejaVuSans-76" x="385.009766"/>
     <use xlink:href="#DejaVuSans-65" x="444.189453"/>
     <use xlink:href="#DejaVuSans-72" x="505.712891"/>
     <use xlink:href="#DejaVuSans-20" x="546.826172"/>
     <use xlink:href="#DejaVuSans-77" x="578.613281"/>
     <use xlink:href="#DejaVuSans-65" x="660.400391"/>
     <use xlink:href="#DejaVuSans-69" x="721.923828"/>
     <use xlink:href="#DejaVuSans-67" x="749.707031"/>
     <use xlink:href="#DejaVuSans-68" x="813.183594"/>
     <use xlink:href="#DejaVuSans-74" x="876.5625"/>
     <use xlink:href="#DejaVuSans-73" x="915.771484"/>
    </g>
   </g>
   <g id="text_3">
    <!-- Master Node (Core) -->
    <g style="fill: #333333" transform="translate(314.77822 62.135547) scale(0.11 -0.11)">
     <defs>
      <path id="DejaVuSans-4d" d="M 628 4666 
L 1569 4666 
L 2759 1491 
L 3956 4666 
L 4897 4666 
L 4897 0 
L 4281 0 
L 4281 4097 
L 3078 897 
L 2444 897 
L 1241 4097 
L 1241 0 
L 628 0 
L 628 4666 
z
" transform="scale(0.015625)"/>
      <path id="DejaVuSans-43" d="M 4122 4306 
L 4122 3641 
Q 3803 3938 3442 4084 
Q 3081 4231 2675 4231 
Q 1875 4231 1450 3742 
Q 1025 3253 1025 2328 
Q 1025 1406 1450 917 
Q 1875 428 2675 428 
Q 3081 428 3442 575 
Q 3803 722 4122 1019 
L 4122 359 
Q 3791 134 3420 21 
Q 3050 -91 2638 -91 
Q 1578 -91 968 557 
Q 359 1206 359 2328 
Q 359 3453 968 4101 
Q 1578 4750 2638 4750 
Q 3056 4750 3426 4639 
Q 3797 4528 4122 4306 
z
" transform="scale(0.015625)"/>
     </defs>
     <use xlink:href="#DejaVuSans-4d"/>
     <use xlink:href="#DejaVuSans-61" x="86.279297"/>
     <use xlink:href="#DejaVuSans-73" x="147.558594"/>
     <use xlink:href="#DejaVuSans-74" x="199.658203"/>
     <use xlink:href="#DejaVuSans-65" x="238.867188"/>
     <use xlink:href="#DejaVuSans-72" x="300.390625"/>
     <use xlink:href="#DejaVuSans-20" x="341.503906"/>
     <use xlink:href="#DejaVuSans-4e" x="373.291016"/>
     <use xlink:href="#DejaVuSans-6f" x="448.095703"/>
     <use xlink:href="#DejaVuSans-64" x="509.277344"/>
     <use xlink:href="#DejaVuSans-65" x="572.753906"/>
     <use xlink:href="#DejaVuSans-20" x="634.277344"/>
     <use xlink:href="#DejaVuSans-28" x="666.064453"/>
     <use xlink:href="#DejaVuSans-43" x="705.078125"/>
     <use xlink:href="#DejaVuSans-6f" x="774.902344"/>
     <use xlink:href="#DejaVuSans-72" x="836.083984"/>
     <use xlink:href="#DejaVuSans-65" x="874.947266"/>
     <use xlink:href="#DejaVuSans-29" x="936.470703"/>
    </g>
    <!-- HMAC_K(concat PN core) -->
    <g style="fill: #333333" transform="translate(300.131032 74.453141) scale(0.11 -0.11)">
     <defs>
      <path id="DejaVuSans-48" d="M 628 4666 
L 1259 4666 
L 1259 2753 
L 3553 2753 
L 3553 4666 
L 4184 4666 
L 4184 0 
L 3553 0 
L 3553 2222 
L 1259 2222 
L 1259 0 
L 628 0 
L 628 4666 
z
" transform="scale(0.015625)"/>
      <path id="DejaVuSans-41" d="M 2188 4044 
L 1331 1722 
L 3047 1722 
L 2188 4044 
z
M 1831 4666 
L 2547 4666 
L 4325 0 
L 3669 0 
L 3244 1197 
L 1141 1197 
L 716 0 
L 50 0 
L 1831 4666 
z
" transform="scale(0.015625)"/>
      <path id="DejaVuSans-5f" d="M 3263 -1063 
L 3263 -1509 
L -63 -1509 
L -63 -1063 
L 3263 -1063 
z
" transform="scale(0.015625)"/>
      <path id="DejaVuSans-4b" d="M 628 4666 
L 1259 4666 
L 1259 2694 
L 3353 4666 
L 4166 4666 
L 1850 2491 
L 4331 0 
L 3500 0 
L 1259 2247 
L 1259 0 
L 628 0 
L 628 4666 
z
" transform="scale(0.015625)"/>
      <path id="DejaVuSans-63" d="M 3122 3366 
L 3122 2828 
Q 2878 2963 2633 3030 
Q 2388 3097 2138 3097 
Q 1578 3097 1268 2742 
Q 959 2388 959 1747 
Q 959 1106 1268 751 
Q 1578 397 2138 397 
Q 2388 397 2633 464 
Q 2878 531 3122 666 
L 3122 134 
Q 2881 22 2623 -34 
Q 2366 -91 2075 -91 
Q 1284 -91 818 406 
Q 353 903 353 1747 
Q 353 2603 823 3093 
Q 1294 3584 2113 3584 
Q 2378 3584 2631 3529 
Q 2884 3475 3122 3366 
z
" transform="scale(0.015625)"/>
     </defs>
     <use xlink:href="#DejaVuSans-48"/>
     <use xlink:href="#DejaVuSans-4d" x="75.195312"/>
     <use xlink:href="#DejaVuSans-41" x="161.474609"/>
     <use xlink:href="#DejaVuSans-43" x="228.132812"/>
     <use xlink:href="#DejaVuSans-5f" x="297.957031"/>
     <use xlink:href="#DejaVuSans-4b" x="347.957031"/>
     <use xlink:href="#DejaVuSans-28" x="413.533203"/>
     <use xlink:href="#DejaVuSans-63" x="452.546875"/>
     <use xlink:href="#DejaVuSans-6f" x="507.527344"/>
     <use xlink:href="#DejaVuSans-6e" x="568.708984"/>
     <use xlink:href="#DejaVuSans-63" x="632.087891"/>
     <use xlink:href="#DejaVuSans-61" x="687.068359"/>
     <use xlink:href="#DejaVuSans-74" x="748.347656"/>
     <use xlink:href="#DejaVuSans-20" x="787.556641"/>
     <use xlink:href="#DejaVuSans-50" x="819.34375"/>
     <use xlink:href="#DejaVuSans-4e" x="879.646484"/>
     <use xlink:href="#DejaVuSans-20" x="954.451172"/>
     <use xlink:href="#DejaVuSans-63" x="986.238281"/>
     <use xlink:href="#DejaVuSans-6f" x="1041.21875"/>
     <use xlink:href="#DejaVuSans-72" x="1102.400391"/>
     <use xlink:href="#DejaVuSans-65" x="1141.263672"/>
     <use xlink:href="#DejaVuSans-29" x="1202.787109"/>
    </g>
   </g>
   <g id="text_4">
    <!-- Master Node (Edge) -->
    <g style="fill: #333333" transform="translate(313.662751 117.575547) scale(0.11 -0.11)">
     <defs>
      <path id="DejaVuSans-45" d="M 628 4666 
L 3578 4666 
L 3578 4134 
L 1259 4134 
L 1259 2753 
L 3481 2753 
L 3481 2222 
L 1259 2222 
L 1259 531 
L 3634 531 
L 3634 0 
L 628 0 
L 628 4666 
z
" transform="scale(0.015625)"/>
     </defs>
     <use xlink:href="#DejaVuSans-4d"/>
     <use xlink:href="#DejaVuSans-61" x="86.279297"/>
     <use xlink:href="#DejaVuSans-73" x="147.558594"/>
     <use xlink:href="#DejaVuSans-74" x="199.658203"/>
     <use xlink:href="#DejaVuSans-65" x="238.867188"/>
     <use xlink:href="#DejaVuSans-72" x="300.390625"/>
     <use xlink:href="#DejaVuSans-20" x="341.503906"/>
     <use xlink:href="#DejaVuSans-4e" x="373.291016"/>
     <use xlink:href="#DejaVuSans-6f" x="448.095703"/>
     <use xlink:href="#DejaVuSans-64" x="509.277344"/>
     <use xlink:href="#DejaVuSans-65" x="572.753906"/>
     <use xlink:href="#DejaVuSans-20" x="634.277344"/>
     <use xlink:href="#DejaVuSans-28" x="666.064453"/>
     <use xlink:href="#DejaVuSans-45" x="705.078125"/>
     <use xlink:href="#DejaVuSans-64" x="768.261719"/>
     <use xlink:href="#DejaVuSans-67" x="831.738281"/>
     <use xlink:href="#DejaVuSans-65" x="895.214844"/>
     <use xlink:href="#DejaVuSans-29" x="956.738281"/>
    </g>
    <!-- HMAC_K(concat PN edge) -->
    <g style="fill: #333333" transform="translate(298.290251 129.893141) scale(0.11 -0.11)">
     <use xlink:href="#DejaVuSans-48"/>
     <use xlink:href="#DejaVuSans-4d" x="75.195312"/>
     <use xlink:href="#DejaVuSans-41" x="161.474609"/>
     <use xlink:href="#DejaVuSans-43" x="228.132812"/>
     <use xlink:href="#DejaVuSans-5f" x="297.957031"/>
     <use xlink:href="#DejaVuSans-4b" x="347.957031"/>
     <use xlink:href="#DejaVuSans-28" x="413.533203"/>
     <use xlink:href="#DejaVuSans-63" x="452.546875"/>
     <use xlink:href="#DejaVuSans-6f" x="507.527344"/>
     <use xlink:href="#DejaVuSans-6e" x="568.708984"/>
     <use xlink:href="#DejaVuSans-63" x="632.087891"/>
     <use xlink:href="#DejaVuSans-61" x="687.068359"/>
     <use xlink:href="#DejaVuSans-74" x="748.347656"/>
     <use xlink:href="#DejaVuSans-20" x="787.556641"/>
     <use xlink:href="#DejaVuSans-50" x="819.34375"/>
     <use xlink:href="#DejaVuSans-4e" x="879.646484"/>
     <use xlink:href="#DejaVuSans-20" x="954.451172"/>
     <use xlink:href="#DejaVuSans-65" x="986.238281"/>
     <use xlink:href="#DejaVuSans-64" x="1047.761719"/>
     <use xlink:href="#DejaVuSans-67" x="1111.238281"/>
     <use xlink:href="#DejaVuSans-65" x="1174.714844"/>
     <use xlink:href="#DejaVuSans-29" x="1236.238281"/>
    </g>
   </g>
   <g id="text_5">
    <!-- Root Digest R -->
    <g style="fill: #333333" transform="translate(471.961328 89.826672) scale(0.11 -0.11)">
     <defs>
      <path id="DejaVuSans-52" d="M 2841 2188 
Q 3044 2119 3236 1894 
Q 3428 1669 3622 1275 
L 4263 0 
L 3584 0 
L 2988 1197 
Q 2756 1666 2539 1819 
Q 2322 1972 1947 1972 
L 1259 1972 
L 1259 0 
L 628 0 
L 628 4666 
L 2053 4666 
Q 2853 4666 3247 4331 
Q 3641 3997 3641 3322 
Q 3641 2881 3436 2590 
Q 3231 2300 2841 2188 
z
M 1259 4147 
L 1259 2491 
L 2053 2491 
Q 2509 2491 2742 2702 
Q 2975 2913 2975 3322 
Q 2975 3731 2742 3939 
Q 2509 4147 2053 4147 
L 1259 4147 
z
" transform="scale(0.015625)"/>
      <path id="DejaVuSans-44" d="M 1259 4147 
L 1259 519 
L 2022 519 
Q 2988 519 3436 956 
Q 3884 1394 3884 2338 
Q 3884 3275 3436 3711 
Q 2988 4147 2022 4147 
L 1259 4147 
z
M 628 4666 
L 1925 4666 
Q 3281 4666 3915 4102 
Q 4550 3538 4550 2338 
Q 4550 1131 3912 565 
Q 3275 0 1925 0 
L 628 0 
L 628 4666 
z
" transform="scale(0.015625)"/>
     </defs>
     <use xlink:href="#DejaVuSans-52"/>
     <use xlink:href="#DejaVuSans-6f" x="64.982422"/>
     <use xlink:href="#DejaVuSans-6f" x="126.164062"/>
     <use xlink:href="#DejaVuSans-74" x="187.345703"/>
     <use xlink:href="#DejaVuSans-20" x="226.554688"/>
     <use xlink:href="#DejaVuSans-44" x="258.341797"/>
     <use xlink:href="#DejaVuSans-69" x="335.34375"/>
     <use xlink:href="#DejaVuSans-67" x="363.126953"/>
     <use xlink:href="#DejaVuSans-65" x="426.603516"/>
     <use xlink:href="#DejaVuSans-73" x="488.126953"/>
     <use xlink:href="#DejaVuSans-74" x="540.226562"/>
     <use xlink:href="#DejaVuSans-20" x="579.435547"/>
     <use xlink:href="#DejaVuSans-52" x="611.222656"/>
    </g>
    <!-- HMAC_K'(M_core || M_edge) -->
    <g style="fill: #333333" transform="translate(432.996406 102.202016) scale(0.11 -0.11)">
     <defs>
      <path id="DejaVuSans-27" d="M 1147 4666 
L 1147 2931 
L 616 2931 
L 616 4666 
L 1147 4666 
z
" transform="scale(0.015625)"/>
      <path id="DejaVuSans-7c" d="M 1344 4891 
L 1344 -1509 
L 813 -1509 
L 813 4891 
L 1344 4891 
z
" transform="scale(0.015625)"/>
     </defs>
     <use xlink:href="#DejaVuSans-48"/>
     <use xlink:href="#DejaVuSans-4d" x="75.195312"/>
     <use xlink:href="#DejaVuSans-41" x="161.474609"/>
     <use xlink:href="#DejaVuSans-43" x="228.132812"/>
     <use xlink:href="#DejaVuSans-5f" x="297.957031"/>
     <use xlink:href="#DejaVuSans-4b" x="347.957031"/>
     <use xlink:href="#DejaVuSans-27" x="413.533203"/>
     <use xlink:href="#DejaVuSans-28" x="441.023438"/>
     <use xlink:href="#DejaVuSans-4d" x="480.037109"/>
     <use xlink:href="#DejaVuSans-5f" x="566.316406"/>
     <use xlink:href="#DejaVuSans-63" x="616.316406"/>
     <use xlink:href="#DejaVuSans-6f" x="671.296875"/>
     <use xlink:href="#DejaVuSans-72" x="732.478516"/>
     <use xlink:href="#DejaVuSans-65" x="771.341797"/>
     <use xlink:href="#DejaVuSans-20" x="832.865234"/>
     <use xlink:href="#DejaVuSans-7c" x="864.652344"/>
     <use xlink:href="#DejaVuSans-7c" x="898.34375"/>
     <use xlink:href="#DejaVuSans-20" x="932.035156"/>
     <use xlink:href="#DejaVuSans-4d" x="963.822266"/>
     <use xlink:href="#DejaVuSans-5f" x="1050.101562"/>
     <use xlink:href="#DejaVuSans-65" x="1100.101562"/>
     <use xlink:href="#DejaVuSans-64" x="1161.625"/>
     <use xlink:href="#DejaVuSans-67" x="1225.101562"/>
     <use xlink:href="#DejaVuSans-65" x="1288.578125"/>
     <use xlink:href="#DejaVuSans-29" x="1350.101562"/>
    </g>
   </g>
   <g id="text_6">
    <!-- Verify() -->
    <g style="fill: #333333" transform="translate(612.851118 83.69675) scale(0.11 -0.11)">
     <defs>
      <path id="DejaVuSans-56" d="M 1831 0 
L 50 4666 
L 709 4666 
L 2188 738 
L 3669 4666 
L 4325 4666 
L 2547 0 
L 1831 0 
z
" transform="scale(0.015625)"/>
      <path id="DejaVuSans-66" d="M 2375 4863 
L 2375 4384 
L 1825 4384 
Q 1516 4384 1395 4259 
Q 1275 4134 1275 3809 
L 1275 3500 
L 2222 3500 
L 2222 3053 
L 1275 3053 
L 1275 0 
L 697 0 
L 697 3053 
L 147 3053 
L 147 3500 
L 697 3500 
L 697 3744 
Q 697 4328 969 4595 
Q 1241 4863 1831 4863 
L 2375 4863 
z
" transform="scale(0.015625)"/>
     </defs>
     <use xlink:href="#DejaVuSans-56"/>
     <use xlink:href="#DejaVuSans-65" x="60.658203"/>
     <use xlink:href="#DejaVuSans-72" x="122.181641"/>
     <use xlink:href="#DejaVuSans-69" x="163.294922"/>
     <use xlink:href="#DejaVuSans-66" x="191.078125"/>
     <use xlink:href="#DejaVuSans-79" x="224.533203"/>
     <use xlink:href="#DejaVuSans-28" x="283.712891"/>
     <use xlink:href="#DejaVuSans-29" x="322.726562"/>
    </g>
    <!-- fast: M_core &amp; M_edge -->
    <g style="fill: #333333" transform="translate(570.379947 96.014344) scale(0.11 -0.11)">
     <defs>
      <path id="DejaVuSans-3a" d="M 750 794 
L 1409 794 
L 1409 0 
L 750 0 
L 750 794 
z
M 750 3309 
L 1409 3309 
L 1409 2516 
L 750 2516 
L 750 3309 
z
" transform="scale(0.015625)"/>
      <path id="DejaVuSans-26" d="M 1556 2509 
Q 1272 2256 1139 2004 
Q 1006 1753 1006 1478 
Q 1006 1022 1337 719 
Q 1669 416 2169 416 
Q 2466 416 2725 514 
Q 2984 613 3213 813 
L 1556 2509 
z
M 1997 2859 
L 3584 1234 
Q 3769 1513 3872 1830 
Q 3975 2147 3994 2503 
L 4575 2503 
Q 4538 2091 4375 1687 
Q 4213 1284 3922 891 
L 4794 0 
L 4006 0 
L 3559 459 
Q 3234 181 2878 45 
Q 2522 -91 2113 -91 
Q 1359 -91 881 339 
Q 403 769 403 1441 
Q 403 1841 612 2192 
Q 822 2544 1241 2853 
Q 1091 3050 1012 3245 
Q 934 3441 934 3628 
Q 934 4134 1281 4442 
Q 1628 4750 2203 4750 
Q 2463 4750 2720 4694 
Q 2978 4638 3244 4525 
L 3244 3956 
Q 2972 4103 2725 4179 
Q 2478 4256 2266 4256 
Q 1938 4256 1733 4082 
Q 1528 3909 1528 3634 
Q 1528 3475 1620 3314 
Q 1713 3153 1997 2859 
z
" transform="scale(0.015625)"/>
     </defs>
     <use xlink:href="#DejaVuSans-66"/>
     <use xlink:href="#DejaVuSans-61" x="35.205078"/>
     <use xlink:href="#DejaVuSans-73" x="96.484375"/>
     <use xlink:href="#DejaVuSans-74" x="148.583984"/>
     <use xlink:href="#DejaVuSans-3a" x="187.792969"/>
     <use xlink:href="#DejaVuSans-20" x="221.484375"/>
     <use xlink:href="#DejaVuSans-4d" x="253.271484"/>
     <use xlink:href="#DejaVuSans-5f" x="339.550781"/>
     <use xlink:href="#DejaVuSans-63" x="389.550781"/>
     <use xlink:href="#DejaVuSans-6f" x="444.53125"/>
     <use xlink:href="#DejaVuSans-72" x="505.712891"/>
     <use xlink:href="#DejaVuSans-65" x="544.576172"/>
     <use xlink:href="#DejaVuSans-20" x="606.099609"/>
     <use xlink:href="#DejaVuSans-26" x="637.886719"/>
     <use xlink:href="#DejaVuSans-20" x="715.865234"/>
     <use xlink:href="#DejaVuSans-4d" x="747.652344"/>
     <use xlink:href="#DejaVuSans-5f" x="833.931641"/>
     <use xlink:href="#DejaVuSans-65" x="883.931641"/>
     <use xlink:href="#DejaVuSans-64" x="945.455078"/>
     <use xlink:href="#DejaVuSans-67" x="1008.931641"/>
     <use xlink:href="#DejaVuSans-65" x="1072.408203"/>
    </g>
    <!-- full: all masters -->
    <g style="fill: #333333" transform="translate(590.234947 108.637875) scale(0.11 -0.11)">
     <defs>
      <path id="DejaVuSans-6c" d="M 603 4863 
L 1178 4863 
L 1178 0 
L 603 0 
L 603 4863 
z
" transform="scale(0.015625)"/>
      <path id="DejaVuSans-6d" d="M 3328 2828 
Q 3544 3216 3844 3400 
Q 4144 3584 4550 3584 
Q 5097 3584 5394 3201 
Q 5691 2819 5691 2113 
L 5691 0 
L 5113 0 
L 5113 2094 
Q 5113 2597 4934 2840 
Q 4756 3084 4391 3084 
Q 3944 3084 3684 2787 
Q 3425 2491 3425 1978 
L 3425 0 
L 2847 0 
L 2847 2094 
Q 2847 2600 2669 2842 
Q 2491 3084 2119 3084 
Q 1678 3084 1418 2786 
Q 1159 2488 1159 1978 
L 1159 0 
L 581 0 
L 581 3500 
L 1159 3500 
L 1159 2956 
Q 1356 3278 1631 3431 
Q 1906 3584 2284 3584 
Q 2666 3584 2933 3390 
Q 3200 3197 3328 2828 
z
" transform="scale(0.015625)"/>
     </defs>
     <use xlink:href="#DejaVuSans-66"/>
     <use xlink:href="#DejaVuSans-75" x="35.205078"/>
     <use xlink:href="#DejaVuSans-6c" x="98.583984"/>
     <use xlink:href="#DejaVuSans-6c" x="126.367188"/>
     <use xlink:href="#DejaVuSans-3a" x="154.150391"/>
     <use xlink:href="#DejaVuSans-20" x="187.841797"/>
     <use xlink:href="#DejaVuSans-61" x="219.628906"/>
     <use xlink:href="#DejaVuSans-6c" x="280.908203"/>
     <use xlink:href="#DejaVuSans-6c" x="308.691406"/>
     <use xlink:href="#DejaVuSans-20" x="336.474609"/>
     <use xlink:href="#DejaVuSans-6d" x="368.261719"/>
     <use xlink:href="#DejaVuSans-61" x="465.673828"/>
     <use xlink:href="#DejaVuSans-73" x="526.953125"/>
     <use xlink:href="#DejaVuSans-74" x="579.052734"/>
     <use xlink:href="#DejaVuSans-65" x="618.261719"/>
     <use xlink:href="#DejaVuSans-72" x="679.785156"/>
     <use xlink:href="#DejaVuSans-73" x="720.898438"/>
    </g>
   </g>
   <g id="text_7">
    <!-- compute PN -->
    <g style="fill: #333333" transform="translate(129.616135 80.172281) scale(0.09 -0.09)">
     <use xlink:href="#DejaVuSans-63"/>
     <use xlink:href="#DejaVuSans-6f" x="54.980469"/>
     <use xlink:href="#DejaVuSans-6d" x="116.162109"/>
     <use xlink:href="#DejaVuSans-70" x="213.574219"/>
     <use xlink:href="#DejaVuSans-75" x="277.050781"/>
     <use xlink:href="#DejaVuSans-74" x="340.429688"/>
     <use xlink:href="#DejaVuSans-65" x="379.638672"/>
     <use xlink:href="#DejaVuSans-20" x="441.162109"/>
     <use xlink:href="#DejaVuSans-50" x="472.949219"/>
     <use xlink:href="#DejaVuSans-4e" x="533.251953"/>
    </g>
   </g>
   <g id="text_8">
    <!-- aggregate core -->
    <g style="fill: #333333" transform="translate(263.635572 55.224281) scale(0.09 -0.09)">
     <use xlink:href="#DejaVuSans-61"/>
     <use xlink:href="#DejaVuSans-67" x="61.279297"/>
     <use xlink:href="#DejaVuSans-67" x="124.755859"/>
     <use xlink:href="#DejaVuSans-72" x="188.232422"/>
     <use xlink:href="#DejaVuSans-65" x="227.095703"/>
     <use xlink:href="#DejaVuSans-67" x="288.619141"/>
     <use xlink:href="#DejaVuSans-61" x="352.095703"/>
     <use xlink:href="#DejaVuSans-74" x="413.375"/>
     <use xlink:href="#DejaVuSans-65" x="452.583984"/>
     <use xlink:href="#DejaVuSans-20" x="514.107422"/>
     <use xlink:href="#DejaVuSans-63" x="545.894531"/>
     <use xlink:href="#DejaVuSans-6f" x="600.875"/>
     <use xlink:href="#DejaVuSans-72" x="662.056641"/>
     <use xlink:href="#DejaVuSans-65" x="700.919922"/>
    </g>
   </g>
   <g id="text_9">
    <!-- aggregate edge -->
    <g style="fill: #333333" transform="translate(262.129478 102.348281) scale(0.09 -0.09)">
     <use xlink:href="#DejaVuSans-61"/>
     <use xlink:href="#DejaVuSans-67" x="61.279297"/>
     <use xlink:href="#DejaVuSans-67" x="124.755859"/>
     <use xlink:href="#DejaVuSans-72" x="188.232422"/>
     <use xlink:href="#DejaVuSans-65" x="227.095703"/>
     <use xlink:href="#DejaVuSans-67" x="288.619141"/>
     <use xlink:href="#DejaVuSans-61" x="352.095703"/>
     <use xlink:href="#DejaVuSans-74" x="413.375"/>
     <use xlink:href="#DejaVuSans-65" x="452.583984"/>
     <use xlink:href="#DejaVuSans-20" x="514.107422"/>
     <use xlink:href="#DejaVuSans-65" x="545.894531"/>
     <use xlink:href="#DejaVuSans-64" x="607.417969"/>
     <use xlink:href="#DejaVuSans-67" x="670.894531"/>
     <use xlink:href="#DejaVuSans-65" x="734.371094"/>
    </g>
   </g>
   <g id="text_10">
    <!-- Fixed Dual-Master Fast Check -->
    <g style="fill: #333333" transform="translate(365.411883 43.223375) scale(0.1 -0.1)">
     <defs>
      <path id="DejaVuSans-46" d="M 628 4666 
L 3309 4666 
L 3309 4134 
L 1259 4134 
L 1259 2759 
L 3109 2759 
L 3109 2228 
L 1259 2228 
L 1259 0 
L 628 0 
L 628 4666 
z
" transform="scale(0.015625)"/>
      <path id="DejaVuSans-2d" d="M 313 2009 
L 1997 2009 
L 1997 1497 
L 313 1497 
L 313 2009 
z
" transform="scale(0.015625)"/>
      <path id="DejaVuSans-6b" d="M 581 4863 
L 1159 4863 
L 1159 1991 
L 2875 3500 
L 3609 3500 
L 1753 1863 
L 3688 0 
L 2938 0 
L 1159 1709 
L 1159 0 
L 581 0 
L 581 4863 
z
" transform="scale(0.015625)"/>
     </defs>
     <use xlink:href="#DejaVuSans-46"/>
     <use xlink:href="#DejaVuSans-69" x="50.269531"/>
     <use xlink:href="#DejaVuSans-78" x="78.052734"/>
     <use xlink:href="#DejaVuSans-65" x="134.107422"/>
     <use xlink:href="#DejaVuSans-64" x="195.630859"/>
     <use xlink:href="#DejaVuSans-20" x="259.107422"/>
     <use xlink:href="#DejaVuSans-44" x="290.894531"/>
     <use xlink:href="#DejaVuSans-75" x="367.896484"/>
     <use xlink:href="#DejaVuSans-61" x="431.275391"/>
     <use xlink:href="#DejaVuSans-6c" x="492.554688"/>
     <use xlink:href="#DejaVuSans-2d" x="520.337891"/>
     <use xlink:href="#DejaVuSans-4d" x="556.421875"/>
     <use xlink:href="#DejaVuSans-61" x="642.701172"/>
     <use xlink:href="#DejaVuSans-73" x="703.980469"/>
     <use xlink:href="#DejaVuSans-74" x="756.080078"/>
     <use xlink:href="#DejaVuSans-65" x="795.289062"/>
     <use xlink:href="#DejaVuSans-72" x="856.8125"/>
     <use xlink:href="#DejaVuSans-20" x="897.925781"/>
     <use xlink:href="#DejaVuSans-46" x="929.712891"/>
     <use xlink:href="#DejaVuSans-61" x="978.107422"/>
     <use xlink:href="#DejaVuSans-73" x="1039.386719"/>
     <use xlink:href="#DejaVuSans-74" x="1091.486328"/>
     <use xlink:href="#DejaVuSans-20" x="1130.695312"/>
     <use xlink:href="#DejaVuSans-43" x="1162.482422"/>
     <use xlink:href="#DejaVuSans-68" x="1232.306641"/>
     <use xlink:href="#DejaVuSans-65" x="1295.685547"/>
     <use xlink:href="#DejaVuSans-63" x="1357.208984"/>
     <use xlink:href="#DejaVuSans-6b" x="1412.189453"/>
    </g>
   </g>
   <g id="text_11">
    <!-- Example: PN sums [0.5, 0.6, -0.1, 1.0] -->
    <g style="fill: #333333" transform="translate(141.78808 137.195437) scale(0.09 -0.09)">
     <defs>
      <path id="DejaVuSans-5b" d="M 550 4863 
L 1875 4863 
L 1875 4416 
L 1125 4416 
L 1125 -397 
L 1875 -397 
L 1875 -844 
L 550 -844 
L 550 4863 
z
" transform="scale(0.015625)"/>
      <path id="DejaVuSans-30" d="M 2034 4250 
Q 1547 4250 1301 3770 
Q 1056 3291 1056 2328 
Q 1056 1369 1301 889 
Q 1547 409 2034 409 
Q 2525 409 2770 889 
Q 3016 1369 3016 2328 
Q 3016 3291 2770 3770 
Q 2525 4250 2034 4250 
z
M 2034 4750 
Q 2819 4750 3233 4129 
Q 3647 3509 3647 2328 
Q 3647 1150 3233 529 
Q 2819 -91 2034 -91 
Q 1250 -91 836 529 
Q 422 1150 422 2328 
Q 422 3509 836 4129 
Q 1250 4750 2034 4750 
z
" transform="scale(0.015625)"/>
      <path id="DejaVuSans-2e" d="M 684 794 
L 1344 794 
L 1344 0 
L 684 0 
L 684 794 
z
" transform="scale(0.015625)"/>
      <path id="DejaVuSans-35" d="M 691 4666 
L 3169 4666 
L 3169 4134 
L 1269 4134 
L 1269 2991 
Q 1406 3038 1543 3061 
Q 1681 3084 1819 3084 
Q 2600 3084 3056 2656 
Q 3513 2228 3513 1497 
Q 3513 744 3044 326 
Q 2575 -91 1722 -91 
Q 1428 -91 1123 -41 
Q 819 9 494 109 
L 494 744 
Q 775 591 1075 516 
Q 1375 441 1709 441 
Q 2250 441 2565 725 
Q 2881 1009 2881 1497 
Q 2881 1984 2565 2268 
Q 2250 2553 1709 2553 
Q 1456 2553 1204 2497 
Q 953 2441 691 2322 
L 691 4666 
z
" transform="scale(0.015625)"/>
      <path id="DejaVuSans-2c" d="M 750 794 
L 1409 794 
L 1409 256 
L 897 -744 
L 494 -744 
L 750 256 
L 750 794 
z
" transform="scale(0.015625)"/>
      <path id="DejaVuSans-36" d="M 2113 2584 
Q 1688 2584 1439 2293 
Q 1191 2003 1191 1497 
Q 1191 994 1439 701 
Q 1688 409 2113 409 
Q 2538 409 2786 701 
Q 3034 994 3034 1497 
Q 3034 2003 2786 2293 
Q 2538 2584 2113 2584 
z
M 3366 4563 
L 3366 3988 
Q 3128 4100 2886 4159 
Q 2644 4219 2406 4219 
Q 1781 4219 1451 3797 
Q 1122 3375 1075 2522 
Q 1259 2794 1537 2939 
Q 1816 3084 2150 3084 
Q 2853 3084 3261 2657 
Q 3669 2231 3669 1497 
Q 3669 778 3244 343 
Q 2819 -91 2113 -91 
Q 1303 -91 875 529 
Q 447 1150 447 2328 
Q 447 3434 972 4092 
Q 1497 4750 2381 4750 
Q 2619 4750 2861 4703 
Q 3103 4656 3366 4563 
z
" transform="scale(0.015625)"/>
      <path id="DejaVuSans-31" d="M 794 531 
L 1825 531 
L 1825 4091 
L 703 3866 
L 703 4441 
L 1819 4666 
L 2450 4666 
L 2450 531 
L 3481 531 
L 3481 0 
L 794 0 
L 794 531 
z
" transform="scale(0.015625)"/>
      <path id="DejaVuSans-5d" d="M 1947 4863 
L 1947 -844 
L 622 -844 
L 622 -397 
L 1369 -397 
L 1369 4416 
L 622 4416 
L 622 4863 
L 1947 4863 
z
" transform="scale(0.015625)"/>
     </defs>
     <use xlink:href="#DejaVuSans-45"/>
     <use xlink:href="#DejaVuSans-78" x="63.183594"/>
     <use xlink:href="#DejaVuSans-61" x="122.363281"/>
     <use xlink:href="#DejaVuSans-6d" x="183.642578"/>
     <use xlink:href="#DejaVuSans-70" x="281.054688"/>
     <use xlink:href="#DejaVuSans-6c" x="344.53125"/>
     <use xlink:href="#DejaVuSans-65" x="372.314453"/>
     <use xlink:href="#DejaVuSans-3a" x="433.837891"/>
     <use xlink:href="#DejaVuSans-20" x="467.529297"/>
     <use xlink:href="#DejaVuSans-50" x="499.316406"/>
     <use xlink:href="#DejaVuSans-4e" x="559.619141"/>
     <use xlink:href="#DejaVuSans-20" x="634.423828"/>
     <use xlink:href="#DejaVuSans-73" x="666.210938"/>
     <use xlink:href="#DejaVuSans-75" x="718.310547"/>
     <use xlink:href="#DejaVuSans-6d" x="781.689453"/>
     <use xlink:href="#DejaVuSans-73" x="879.101562"/>
     <use xlink:href="#DejaVuSans-20" x="931.201172"/>
     <use xlink:href="#DejaVuSans-5b" x="962.988281"/>
     <use xlink:href="#DejaVuSans-30" x="1002.001953"/>
     <use xlink:href="#DejaVuSans-2e" x="1065.625"/>
     <use xlink:href="#DejaVuSans-35" x="1097.412109"/>
     <use xlink:href="#DejaVuSans-2c" x="1161.035156"/>
     <use xlink:href="#DejaVuSans-20" x="1192.822266"/>
     <use xlink:href="#DejaVuSans-30" x="1224.609375"/>
     <use xlink:href="#DejaVuSans-2e" x="1288.232422"/>
     <use xlink:href="#DejaVuSans-36" x="1320.019531"/>
     <use xlink:href="#DejaVuSans-2c" x="1383.642578"/>
     <use xlink:href="#DejaVuSans-20" x="1415.429688"/>
     <use xlink:href="#DejaVuSans-2d" x="1447.216797"/>
     <use xlink:href="#DejaVuSans-30" x="1483.300781"/>
     <use xlink:href="#DejaVuSans-2e" x="1546.923828"/>
     <use xlink:href="#DejaVuSans-31" x="1578.710938"/>
     <use xlink:href="#DejaVuSans-2c" x="1642.333984"/>
     <use xlink:href="#DejaVuSans-20" x="1674.121094"/>
     <use xlink:href="#DejaVuSans-31" x="1705.908203"/>
     <use xlink:href="#DejaVuSans-2e" x="1769.53125"/>
     <use xlink:href="#DejaVuSans-30" x="1801.318359"/>
     <use xlink:href="#DejaVuSans-5d" x="1864.941406"/>
    </g>
   </g>
   <g id="text_12">
    <!-- Core/Edge HMACs depend on PN values + K -->
    <g style="fill: #333333" transform="translate(269.409079 189.863438) scale(0.09 -0.09)">
     <defs>
      <path id="DejaVuSans-2f" d="M 1625 4666 
L 2156 4666 
L 531 -594 
L 0 -594 
L 1625 4666 
z
" transform="scale(0.015625)"/>
      <path id="DejaVuSans-2b" d="M 2944 4013 
L 2944 2272 
L 4684 2272 
L 4684 1741 
L 2944 1741 
L 2944 0 
L 2419 0 
L 2419 1741 
L 678 1741 
L 678 2272 
L 2419 2272 
L 2419 4013 
L 2944 4013 
z
" transform="scale(0.015625)"/>
     </defs>
     <use xlink:href="#DejaVuSans-43"/>
     <use xlink:href="#DejaVuSans-6f" x="69.824219"/>
     <use xlink:href="#DejaVuSans-72" x="131.005859"/>
     <use xlink:href="#DejaVuSans-65" x="169.869141"/>
     <use xlink:href="#DejaVuSans-2f" x="231.392578"/>
     <use xlink:href="#DejaVuSans-45" x="265.083984"/>
     <use xlink:href="#DejaVuSans-64" x="328.267578"/>
     <use xlink:href="#DejaVuSans-67" x="391.744141"/>
     <use xlink:href="#DejaVuSans-65" x="455.220703"/>
     <use xlink:href="#DejaVuSans-20" x="516.744141"/>
     <use xlink:href="#DejaVuSans-48" x="548.53125"/>
     <use xlink:href="#DejaVuSans-4d" x="623.726562"/>
     <use xlink:href="#DejaVuSans-41" x="710.005859"/>
     <use xlink:href="#DejaVuSans-43" x="776.664062"/>
     <use xlink:href="#DejaVuSans-73" x="846.488281"/>
     <use xlink:href="#DejaVuSans-20" x="898.587891"/>
     <use xlink:href="#DejaVuSans-64" x="930.375"/>
     <use xlink:href="#DejaVuSans-65" x="993.851562"/>
     <use xlink:href="#DejaVuSans-70" x="1055.375"/>
     <use xlink:href="#DejaVuSans-65" x="1118.851562"/>
     <use xlink:href="#DejaVuSans-6e" x="1180.375"/>
     <use xlink:href="#DejaVuSans-64" x="1243.753906"/>
     <use xlink:href="#DejaVuSans-20" x="1307.230469"/>
     <use xlink:href="#DejaVuSans-6f" x="1339.017578"/>
     <use xlink:href="#DejaVuSans-6e" x="1400.199219"/>
     <use xlink:href="#DejaVuSans-20" x="1463.578125"/>
     <use xlink:href="#DejaVuSans-50" x="1495.365234"/>
     <use xlink:href="#DejaVuSans-4e" x="1555.667969"/>
     <use xlink:href="#DejaVuSans-20" x="1630.472656"/>
     <use xlink:href="#DejaVuSans-76" x="1662.259766"/>
     <use xlink:href="#DejaVuSans-61" x="1721.439453"/>
     <use xlink:href="#DejaVuSans-6c" x="1782.71875"/>
     <use xlink:href="#DejaVuSans-75" x="1810.501953"/>
     <use xlink:href="#DejaVuSans-65" x="1873.880859"/>
     <use xlink:href="#DejaVuSans-73" x="1935.404297"/>
     <use xlink:href="#DejaVuSans-20" x="1987.503906"/>
     <use xlink:href="#DejaVuSans-2b" x="2019.291016"/>
     <use xlink:href="#DejaVuSans-20" x="2103.080078"/>
     <use xlink:href="#DejaVuSans-4b" x="2134.867188"/>
    </g>
   </g>
  </g>
 </g>
 <defs>
  <clipPath id="pcc4f669eb8">
   <rect x="7.2" y="7.2" width="669.6" height="221.76"/>
  </clipPath>
 </defs>
</svg>
